version = 1
nColumns = 19
nRows = 15
inDegrees = yes
endheader 
time	r_ground_force_vx	r_ground_force_vy	r_ground_force_vz	r_ground_force_px	r_ground_force_py	r_ground_force_pz	l_ground_force_vx	l_ground_force_vy	l_ground_force_vz	l_ground_force_px	l_ground_force_py	l_ground_force_pz	r_ground_torque_x	r_ground_torque_y	r_ground_torque_z	l_ground_torque_x	l_ground_torque_y	l_ground_torque_z	
          0.28079716	          0.00000000	          0.00000000	          0.00000000	          0.00000000	          0.00000000	          0.00000000	       -233.84786524	        348.54990929	        -35.28510509	          1.12769275	          0.00000000	         -0.03541616	          0.00000000	          0.00000000	          0.00000000	          0.00000000	          3.20923100	          0.00000000	
          0.28166792	          0.00000000	          0.00000000	          0.00000000	          0.00000000	          0.00000000	          0.00000000	       -160.09860798	        356.62872023	         26.53095129	          0.18432704	          0.00000000	          0.03647803	          0.00000000	          0.00000000	          0.00000000	          0.00000000	         -3.41496046	          0.00000000	
          0.28441915	          0.00000000	          0.00000000	          0.00000000	          0.00000000	          0.00000000	          0.00000000	        -77.93541156	        443.96558858	         11.49336135	          0.16552290	          0.00000000	          0.03929898	          0.00000000	          0.00000000	          0.00000000	          0.00000000	         -4.01114906	          0.00000000	
          0.28641310	          0.00000000	          0.00000000	          0.00000000	          0.00000000	          0.00000000	          0.00000000	        -75.11969878	        550.73580984	          7.24687493	          0.15960858	          0.00000000	          0.04054455	          0.00000000	          0.00000000	          0.00000000	          0.00000000	         -3.83827604	          0.00000000	
          0.28728386	          0.00000000	          0.00000000	          0.00000000	          0.00000000	          0.00000000	          0.00000000	        -73.84063456	        600.50733419	          7.02641173	          0.15779567	          0.00000000	          0.04103114	          0.00000000	          0.00000000	          0.00000000	          0.00000000	         -3.42771492	          0.00000000	
          0.29003510	          0.00000000	          0.00000000	          0.00000000	          0.00000000	          0.00000000	          0.00000000	        -77.11404763	        747.05235229	          6.17792468	          0.15271725	          0.00000000	          0.04252312	          0.00000000	          0.00000000	          0.00000000	          0.00000000	         -2.03182694	          0.00000000	
          0.29202904	          0.00000000	          0.00000000	          0.00000000	          0.00000000	          0.00000000	          0.00000000	        -78.71248600	        835.85636389	          4.44228539	          0.14964804	          0.00000000	          0.04348270	          0.00000000	          0.00000000	          0.00000000	          0.00000000	         -1.11232201	          0.00000000	
          0.29289980	          0.00000000	          0.00000000	          0.00000000	          0.00000000	          0.00000000	          0.00000000	        -77.19934750	        868.88664059	          3.23199229	          0.14849437	          0.00000000	          0.04385087	          0.00000000	          0.00000000	          0.00000000	          0.00000000	         -0.78299213	          0.00000000	
          0.29565104	          0.00000000	          0.00000000	          0.00000000	          0.00000000	          0.00000000	          0.00000000	        -72.30432273	        956.90962697	         -1.09783044	          0.14653297	          0.00000000	          0.04466760	          0.00000000	          0.00000000	          0.00000000	          0.00000000	         -0.09635612	          0.00000000	
          0.29764499	          0.00000000	          0.00000000	          0.00000000	          0.00000000	          0.00000000	          0.00000000	        -71.06330733	       1004.78853909	         -3.51842542	          0.14638475	          0.00000000	          0.04500069	          0.00000000	          0.00000000	          0.00000000	          0.00000000	          0.17138482	          0.00000000	
          0.29851574	          0.00000000	          0.00000000	          0.00000000	          0.00000000	          0.00000000	          0.00000000	        -71.22368345	       1021.77950818	         -4.21680925	          0.14658674	          0.00000000	          0.04509437	          0.00000000	          0.00000000	          0.00000000	          0.00000000	          0.25506791	          0.00000000	
          0.30126698	          0.00000000	          0.00000000	          0.00000000	          0.00000000	          0.00000000	          0.00000000	        -73.48661328	       1062.16395427	         -6.47068556	          0.14812852	          0.00000000	          0.04521443	          0.00000000	          0.00000000	          0.00000000	          0.00000000	          0.26759892	          0.00000000	
          0.30326093	          0.00000000	          0.00000000	          0.00000000	          0.00000000	          0.00000000	          0.00000000	        -76.67537900	       1081.00087921	         -7.93980481	          0.14987340	          0.00000000	          0.04518189	          0.00000000	          0.00000000	          0.00000000	          0.00000000	          0.10018474	          0.00000000	
          0.30413169	          0.00000000	          0.00000000	          0.00000000	          0.00000000	          0.00000000	          0.00000000	        -78.35776886	       1087.08047300	         -8.45629070	          0.15074024	          0.00000000	          0.04514821	          0.00000000	          0.00000000	          0.00000000	          0.00000000	          0.00416693	          0.00000000	
          0.30688293	          0.00000000	          0.00000000	          0.00000000	          0.00000000	          0.00000000	          0.00000000	        -83.22344127	       1099.11192492	         -9.36516651	          0.15366814	          0.00000000	          0.04500499	          0.00000000	          0.00000000	          0.00000000	          0.00000000	         -0.30295512	          0.00000000	
